<svg xmlns="http://www.w3.org/2000/svg" width="440" height="440" viewBox="0 0 440 440" aria-hidden="true" role="img"
  preserveAspectRatio="xMidYMid meet">
  <g fill="none" fill-rule="evenodd">
    <rect width="440" height="440" fill="#1A1916"/>
    <g stroke="#FBF5D5" stroke-linecap="round" stroke-linejoin="round" stroke-width="16" transform="translate(103 81)">
      <path
        d="M219.4736,160.6631 L142.2886,202.2861 C96.2766,226.3281 156.5266,266.7961 156.5266,216.6091 L156.5266,95.6811" />
      <path
        d="M233.8223,115.8184 L24.9093,231.7684 C-38.4627,267.4694 39.9583,303.5134 39.9583,247.9724 L39.9583,90.1904 L122.8813,43.9014 C177.6203,9.4824 101.3083,-27.8486 101.3083,32.9114 L101.3083,136.8424 C101.3083,181.0924 36.3553,134.2884 77.0193,112.8254 L128.9183,82.8084 L128.9183,138.3814 C128.9183,138.3814 167.6973,117.5584 182.4733,108.6714 C192.8183,102.1224 211.0983,89.3674 201.3903,68.1144 C195.9853,56.2784 180.2603,52.8524 157.9533,68.4994" />
    </g>
  </g>
</svg>